<mxfile host="app.diagrams.net" modified="2023-06-02T01:13:08.555Z" agent="Mozilla/5.0 (Windows NT 10.0; Win64; x64) AppleWebKit/537.36 (KHTML, like Gecko) Chrome/114.0.0.0 Safari/537.36" etag="LsQPfqP2UJC9GXEUSB_X" version="21.3.2" type="device">
  <diagram name="Page-1" id="s5_vKj6jAnv7hspi-ZaR">
    <mxGraphModel dx="2261" dy="1826" grid="0" gridSize="10" guides="1" tooltips="1" connect="1" arrows="1" fold="1" page="1" pageScale="1" pageWidth="827" pageHeight="1169" math="0" shadow="0">
      <root>
        <mxCell id="0" />
        <mxCell id="1" parent="0" />
        <mxCell id="LH-wosX4n64rVjz8hfUV-25" style="edgeStyle=orthogonalEdgeStyle;shape=connector;rounded=0;orthogonalLoop=1;jettySize=auto;html=1;entryX=0;entryY=0.5;entryDx=0;entryDy=0;labelBackgroundColor=default;strokeColor=default;fontFamily=Helvetica;fontSize=11;fontColor=default;endArrow=none;endFill=0;exitX=1;exitY=0.5;exitDx=0;exitDy=0;" parent="1" source="LH-wosX4n64rVjz8hfUV-2" target="LH-wosX4n64rVjz8hfUV-24" edge="1">
          <mxGeometry relative="1" as="geometry">
            <mxPoint x="60" y="460" as="sourcePoint" />
            <Array as="points">
              <mxPoint x="50" y="432" />
              <mxPoint x="270" y="432" />
              <mxPoint x="270" y="460" />
            </Array>
          </mxGeometry>
        </mxCell>
        <mxCell id="LH-wosX4n64rVjz8hfUV-32" value="N" style="edgeLabel;html=1;align=center;verticalAlign=middle;resizable=0;points=[];fontSize=11;fontFamily=Helvetica;fontColor=default;" parent="LH-wosX4n64rVjz8hfUV-25" vertex="1" connectable="0">
          <mxGeometry x="0.9191" y="1" relative="1" as="geometry">
            <mxPoint x="6" y="11" as="offset" />
          </mxGeometry>
        </mxCell>
        <mxCell id="LH-wosX4n64rVjz8hfUV-42" style="edgeStyle=orthogonalEdgeStyle;shape=connector;rounded=0;orthogonalLoop=1;jettySize=auto;html=1;exitX=0.082;exitY=1.028;exitDx=0;exitDy=0;entryX=0.776;entryY=0.091;entryDx=0;entryDy=0;labelBackgroundColor=default;strokeColor=default;fontFamily=Helvetica;fontSize=11;fontColor=default;endArrow=none;endFill=0;entryPerimeter=0;exitPerimeter=0;" parent="1" source="LH-wosX4n64rVjz8hfUV-2" target="LH-wosX4n64rVjz8hfUV-40" edge="1">
          <mxGeometry relative="1" as="geometry">
            <Array as="points">
              <mxPoint x="-60" y="470" />
              <mxPoint x="-60" y="490" />
              <mxPoint x="-190" y="490" />
            </Array>
          </mxGeometry>
        </mxCell>
        <mxCell id="LH-wosX4n64rVjz8hfUV-2" value="&lt;div&gt;Anime&lt;/div&gt;" style="rounded=0;whiteSpace=wrap;html=1;" parent="1" vertex="1">
          <mxGeometry x="-70" y="430" width="120" height="40" as="geometry" />
        </mxCell>
        <mxCell id="LH-wosX4n64rVjz8hfUV-12" style="edgeStyle=orthogonalEdgeStyle;rounded=0;orthogonalLoop=1;jettySize=auto;html=1;exitX=1;exitY=0.564;exitDx=0;exitDy=0;entryX=0;entryY=0.25;entryDx=0;entryDy=0;endArrow=none;endFill=0;exitPerimeter=0;" parent="1" source="LH-wosX4n64rVjz8hfUV-3" target="LH-wosX4n64rVjz8hfUV-2" edge="1">
          <mxGeometry relative="1" as="geometry">
            <Array as="points">
              <mxPoint x="-210" y="410" />
              <mxPoint x="-110" y="410" />
              <mxPoint x="-110" y="450" />
              <mxPoint x="-70" y="450" />
            </Array>
          </mxGeometry>
        </mxCell>
        <mxCell id="LH-wosX4n64rVjz8hfUV-3" value="Name" style="ellipse;whiteSpace=wrap;html=1;" parent="1" vertex="1">
          <mxGeometry x="-300" y="380" width="90" height="50" as="geometry" />
        </mxCell>
        <mxCell id="LH-wosX4n64rVjz8hfUV-13" style="edgeStyle=orthogonalEdgeStyle;shape=connector;rounded=0;orthogonalLoop=1;jettySize=auto;html=1;exitX=0.993;exitY=0.6;exitDx=0;exitDy=0;labelBackgroundColor=default;strokeColor=default;fontFamily=Helvetica;fontSize=11;fontColor=default;endArrow=none;endFill=0;exitPerimeter=0;entryX=-0.002;entryY=0.3;entryDx=0;entryDy=0;entryPerimeter=0;" parent="1" source="LH-wosX4n64rVjz8hfUV-5" target="LH-wosX4n64rVjz8hfUV-2" edge="1">
          <mxGeometry relative="1" as="geometry">
            <mxPoint x="-60" y="430" as="targetPoint" />
            <Array as="points">
              <mxPoint x="-95" y="380" />
              <mxPoint x="-95" y="442" />
            </Array>
          </mxGeometry>
        </mxCell>
        <mxCell id="LH-wosX4n64rVjz8hfUV-5" value="&lt;u&gt;ID&lt;/u&gt;" style="ellipse;whiteSpace=wrap;html=1;" parent="1" vertex="1">
          <mxGeometry x="-210" y="350" width="90" height="50" as="geometry" />
        </mxCell>
        <mxCell id="LH-wosX4n64rVjz8hfUV-11" style="edgeStyle=orthogonalEdgeStyle;rounded=0;orthogonalLoop=1;jettySize=auto;html=1;exitX=1;exitY=0.5;exitDx=0;exitDy=0;entryX=0;entryY=0.5;entryDx=0;entryDy=0;endArrow=none;endFill=0;" parent="1" source="LH-wosX4n64rVjz8hfUV-6" target="LH-wosX4n64rVjz8hfUV-2" edge="1">
          <mxGeometry relative="1" as="geometry">
            <Array as="points">
              <mxPoint x="-70" y="455" />
            </Array>
          </mxGeometry>
        </mxCell>
        <mxCell id="LH-wosX4n64rVjz8hfUV-6" value="Alternative_Name" style="ellipse;whiteSpace=wrap;html=1;" parent="1" vertex="1">
          <mxGeometry x="-230" y="430" width="100" height="50" as="geometry" />
        </mxCell>
        <mxCell id="LH-wosX4n64rVjz8hfUV-16" style="edgeStyle=orthogonalEdgeStyle;shape=connector;rounded=0;orthogonalLoop=1;jettySize=auto;html=1;exitX=1;exitY=0;exitDx=0;exitDy=0;entryX=0;entryY=0.75;entryDx=0;entryDy=0;labelBackgroundColor=default;strokeColor=default;fontFamily=Helvetica;fontSize=11;fontColor=default;endArrow=none;endFill=0;" parent="1" source="LH-wosX4n64rVjz8hfUV-9" target="LH-wosX4n64rVjz8hfUV-2" edge="1">
          <mxGeometry relative="1" as="geometry">
            <Array as="points">
              <mxPoint x="-120" y="482" />
              <mxPoint x="-120" y="460" />
            </Array>
          </mxGeometry>
        </mxCell>
        <mxCell id="LH-wosX4n64rVjz8hfUV-9" value="&lt;div&gt;Synopsis&lt;/div&gt;" style="ellipse;whiteSpace=wrap;html=1;" parent="1" vertex="1">
          <mxGeometry x="-350" y="474.99999999999994" width="90" height="50" as="geometry" />
        </mxCell>
        <mxCell id="LH-wosX4n64rVjz8hfUV-15" style="edgeStyle=orthogonalEdgeStyle;shape=connector;rounded=0;orthogonalLoop=1;jettySize=auto;html=1;exitX=0.5;exitY=0;exitDx=0;exitDy=0;labelBackgroundColor=default;strokeColor=default;fontFamily=Helvetica;fontSize=11;fontColor=default;endArrow=none;endFill=0;" parent="1" source="LH-wosX4n64rVjz8hfUV-10" edge="1">
          <mxGeometry relative="1" as="geometry">
            <mxPoint x="-10" y="470" as="targetPoint" />
            <Array as="points">
              <mxPoint x="-125" y="500" />
              <mxPoint x="-50" y="500" />
              <mxPoint x="-50" y="470" />
            </Array>
          </mxGeometry>
        </mxCell>
        <mxCell id="LH-wosX4n64rVjz8hfUV-10" value="Episodes" style="ellipse;whiteSpace=wrap;html=1;" parent="1" vertex="1">
          <mxGeometry x="-170" y="509.99999999999994" width="90" height="50" as="geometry" />
        </mxCell>
        <mxCell id="LH-wosX4n64rVjz8hfUV-19" style="edgeStyle=orthogonalEdgeStyle;shape=connector;rounded=0;orthogonalLoop=1;jettySize=auto;html=1;exitX=0.5;exitY=0;exitDx=0;exitDy=0;labelBackgroundColor=default;strokeColor=default;fontFamily=Helvetica;fontSize=11;fontColor=default;endArrow=none;endFill=0;entryX=0.875;entryY=-0.005;entryDx=0;entryDy=0;entryPerimeter=0;" parent="1" source="LH-wosX4n64rVjz8hfUV-18" target="LH-wosX4n64rVjz8hfUV-2" edge="1">
          <mxGeometry relative="1" as="geometry">
            <Array as="points">
              <mxPoint x="35" y="300" />
            </Array>
            <mxPoint x="35" y="429" as="targetPoint" />
          </mxGeometry>
        </mxCell>
        <mxCell id="LH-wosX4n64rVjz8hfUV-23" value="N" style="edgeLabel;html=1;align=center;verticalAlign=middle;resizable=0;points=[];fontSize=11;fontFamily=Helvetica;fontColor=default;" parent="LH-wosX4n64rVjz8hfUV-19" vertex="1" connectable="0">
          <mxGeometry x="-0.894" relative="1" as="geometry">
            <mxPoint x="16" y="-10" as="offset" />
          </mxGeometry>
        </mxCell>
        <mxCell id="LH-wosX4n64rVjz8hfUV-20" style="edgeStyle=orthogonalEdgeStyle;shape=connector;rounded=0;orthogonalLoop=1;jettySize=auto;html=1;exitX=0.5;exitY=1;exitDx=0;exitDy=0;labelBackgroundColor=default;strokeColor=default;fontFamily=Helvetica;fontSize=11;fontColor=default;endArrow=none;endFill=0;entryX=0.958;entryY=0.01;entryDx=0;entryDy=0;entryPerimeter=0;" parent="1" source="LH-wosX4n64rVjz8hfUV-18" target="LH-wosX4n64rVjz8hfUV-2" edge="1">
          <mxGeometry relative="1" as="geometry">
            <mxPoint x="50" y="445" as="targetPoint" />
            <Array as="points">
              <mxPoint x="45" y="380" />
              <mxPoint x="45" y="430" />
            </Array>
          </mxGeometry>
        </mxCell>
        <mxCell id="LH-wosX4n64rVjz8hfUV-22" value="1" style="edgeLabel;html=1;align=center;verticalAlign=middle;resizable=0;points=[];fontSize=11;fontFamily=Helvetica;fontColor=default;" parent="LH-wosX4n64rVjz8hfUV-20" vertex="1" connectable="0">
          <mxGeometry x="-0.8435" y="1" relative="1" as="geometry">
            <mxPoint x="23" y="9" as="offset" />
          </mxGeometry>
        </mxCell>
        <mxCell id="LH-wosX4n64rVjz8hfUV-18" value="Related_Anime" style="rhombus;whiteSpace=wrap;html=1;fontFamily=Helvetica;fontSize=11;fontColor=default;" parent="1" vertex="1">
          <mxGeometry x="290" y="300" width="180" height="80" as="geometry" />
        </mxCell>
        <mxCell id="LH-wosX4n64rVjz8hfUV-29" style="edgeStyle=orthogonalEdgeStyle;shape=connector;rounded=0;orthogonalLoop=1;jettySize=auto;html=1;exitX=0.954;exitY=0.555;exitDx=0;exitDy=0;entryX=0;entryY=0.75;entryDx=0;entryDy=0;labelBackgroundColor=default;strokeColor=default;fontFamily=Helvetica;fontSize=11;fontColor=default;endArrow=none;endFill=0;exitPerimeter=0;" parent="1" source="LH-wosX4n64rVjz8hfUV-24" target="LH-wosX4n64rVjz8hfUV-26" edge="1">
          <mxGeometry relative="1" as="geometry">
            <Array as="points">
              <mxPoint x="473" y="464" />
              <mxPoint x="500" y="464" />
            </Array>
          </mxGeometry>
        </mxCell>
        <mxCell id="LH-wosX4n64rVjz8hfUV-31" value="M" style="edgeLabel;html=1;align=center;verticalAlign=middle;resizable=0;points=[];fontSize=11;fontFamily=Helvetica;fontColor=default;" parent="LH-wosX4n64rVjz8hfUV-29" vertex="1" connectable="0">
          <mxGeometry x="-0.7182" relative="1" as="geometry">
            <mxPoint x="-8" y="10" as="offset" />
          </mxGeometry>
        </mxCell>
        <mxCell id="LH-wosX4n64rVjz8hfUV-24" value="Is_Genre" style="rhombus;whiteSpace=wrap;html=1;fontFamily=Helvetica;fontSize=11;fontColor=default;" parent="1" vertex="1">
          <mxGeometry x="290" y="420" width="180" height="80" as="geometry" />
        </mxCell>
        <mxCell id="LH-wosX4n64rVjz8hfUV-39" style="edgeStyle=orthogonalEdgeStyle;shape=connector;rounded=0;orthogonalLoop=1;jettySize=auto;html=1;exitX=0;exitY=0.5;exitDx=0;exitDy=0;entryX=0.942;entryY=0.44;entryDx=0;entryDy=0;entryPerimeter=0;labelBackgroundColor=default;strokeColor=default;fontFamily=Helvetica;fontSize=11;fontColor=default;endArrow=none;endFill=0;" parent="1" source="LH-wosX4n64rVjz8hfUV-26" target="LH-wosX4n64rVjz8hfUV-24" edge="1">
          <mxGeometry relative="1" as="geometry" />
        </mxCell>
        <mxCell id="LH-wosX4n64rVjz8hfUV-26" value="Genre" style="rounded=0;whiteSpace=wrap;html=1;fontFamily=Helvetica;fontSize=11;fontColor=default;" parent="1" vertex="1">
          <mxGeometry x="500" y="435" width="120" height="40" as="geometry" />
        </mxCell>
        <mxCell id="LH-wosX4n64rVjz8hfUV-38" style="edgeStyle=orthogonalEdgeStyle;shape=connector;rounded=0;orthogonalLoop=1;jettySize=auto;html=1;exitX=0.5;exitY=1;exitDx=0;exitDy=0;entryX=0.464;entryY=0.029;entryDx=0;entryDy=0;entryPerimeter=0;labelBackgroundColor=default;strokeColor=default;fontFamily=Helvetica;fontSize=11;fontColor=default;endArrow=none;endFill=0;" parent="1" source="LH-wosX4n64rVjz8hfUV-35" target="LH-wosX4n64rVjz8hfUV-26" edge="1">
          <mxGeometry relative="1" as="geometry" />
        </mxCell>
        <mxCell id="LH-wosX4n64rVjz8hfUV-35" value="Name" style="ellipse;whiteSpace=wrap;html=1;fontFamily=Helvetica;fontSize=11;fontColor=default;" parent="1" vertex="1">
          <mxGeometry x="510" y="359.99999999999994" width="90" height="50" as="geometry" />
        </mxCell>
        <mxCell id="LH-wosX4n64rVjz8hfUV-37" style="edgeStyle=orthogonalEdgeStyle;shape=connector;rounded=0;orthogonalLoop=1;jettySize=auto;html=1;exitX=0.5;exitY=1;exitDx=0;exitDy=0;entryX=1;entryY=0;entryDx=0;entryDy=0;labelBackgroundColor=default;strokeColor=default;fontFamily=Helvetica;fontSize=11;fontColor=default;endArrow=none;endFill=0;" parent="1" source="LH-wosX4n64rVjz8hfUV-36" target="LH-wosX4n64rVjz8hfUV-26" edge="1">
          <mxGeometry relative="1" as="geometry">
            <Array as="points">
              <mxPoint x="675" y="450" />
              <mxPoint x="620" y="450" />
            </Array>
          </mxGeometry>
        </mxCell>
        <mxCell id="LH-wosX4n64rVjz8hfUV-36" value="&lt;u&gt;ID&lt;/u&gt;" style="ellipse;whiteSpace=wrap;html=1;fontFamily=Helvetica;fontSize=11;fontColor=default;" parent="1" vertex="1">
          <mxGeometry x="630" y="369.99999999999994" width="90" height="50" as="geometry" />
        </mxCell>
        <mxCell id="LH-wosX4n64rVjz8hfUV-40" value="Score" style="ellipse;whiteSpace=wrap;html=1;fontFamily=Helvetica;fontSize=11;fontColor=default;dashed=1;" parent="1" vertex="1">
          <mxGeometry x="-260" y="489.99999999999994" width="90" height="50" as="geometry" />
        </mxCell>
        <mxCell id="LH-wosX4n64rVjz8hfUV-46" style="edgeStyle=orthogonalEdgeStyle;shape=connector;rounded=0;orthogonalLoop=1;jettySize=auto;html=1;exitX=1.017;exitY=0.418;exitDx=0;exitDy=0;labelBackgroundColor=default;strokeColor=default;fontFamily=Helvetica;fontSize=11;fontColor=default;endArrow=none;endFill=0;exitPerimeter=0;" parent="1" source="LH-wosX4n64rVjz8hfUV-43" edge="1">
          <mxGeometry relative="1" as="geometry">
            <mxPoint x="-40" y="470" as="targetPoint" />
            <Array as="points">
              <mxPoint x="-69" y="510" />
              <mxPoint x="-40" y="510" />
              <mxPoint x="-40" y="470" />
            </Array>
          </mxGeometry>
        </mxCell>
        <mxCell id="LH-wosX4n64rVjz8hfUV-43" value="Aired_date" style="ellipse;whiteSpace=wrap;html=1;fontFamily=Helvetica;fontSize=11;fontColor=default;" parent="1" vertex="1">
          <mxGeometry x="-160" y="570" width="90" height="50" as="geometry" />
        </mxCell>
        <mxCell id="LH-wosX4n64rVjz8hfUV-49" style="edgeStyle=orthogonalEdgeStyle;shape=connector;rounded=0;orthogonalLoop=1;jettySize=auto;html=1;entryX=0.862;entryY=1.001;entryDx=0;entryDy=0;entryPerimeter=0;labelBackgroundColor=default;strokeColor=default;fontFamily=Helvetica;fontSize=11;fontColor=default;endArrow=none;endFill=0;exitX=0.362;exitY=0.018;exitDx=0;exitDy=0;exitPerimeter=0;" parent="1" source="LH-wosX4n64rVjz8hfUV-44" target="LH-wosX4n64rVjz8hfUV-2" edge="1">
          <mxGeometry relative="1" as="geometry">
            <mxPoint x="-15" y="510" as="sourcePoint" />
            <Array as="points">
              <mxPoint x="-31" y="511" />
              <mxPoint x="-31" y="511" />
              <mxPoint x="-31" y="470" />
            </Array>
          </mxGeometry>
        </mxCell>
        <mxCell id="LH-wosX4n64rVjz8hfUV-44" value="Finished_date" style="ellipse;whiteSpace=wrap;html=1;fontFamily=Helvetica;fontSize=11;fontColor=default;" parent="1" vertex="1">
          <mxGeometry x="-64" y="514" width="90" height="50" as="geometry" />
        </mxCell>
        <mxCell id="LH-wosX4n64rVjz8hfUV-50" style="edgeStyle=orthogonalEdgeStyle;shape=connector;rounded=0;orthogonalLoop=1;jettySize=auto;html=1;exitX=1;exitY=0;exitDx=0;exitDy=0;labelBackgroundColor=default;strokeColor=default;fontFamily=Helvetica;fontSize=11;fontColor=default;endArrow=none;endFill=0;entryX=0.415;entryY=1.006;entryDx=0;entryDy=0;entryPerimeter=0;" parent="1" source="LH-wosX4n64rVjz8hfUV-45" target="LH-wosX4n64rVjz8hfUV-2" edge="1">
          <mxGeometry relative="1" as="geometry">
            <mxPoint x="50" y="490" as="targetPoint" />
            <Array as="points">
              <mxPoint x="29" y="577" />
              <mxPoint x="29" y="490" />
              <mxPoint x="-20" y="490" />
              <mxPoint x="-20" y="470" />
            </Array>
          </mxGeometry>
        </mxCell>
        <mxCell id="LH-wosX4n64rVjz8hfUV-45" value="Season" style="ellipse;whiteSpace=wrap;html=1;fontFamily=Helvetica;fontSize=11;fontColor=default;dashed=1;" parent="1" vertex="1">
          <mxGeometry x="-55" y="570" width="90" height="50" as="geometry" />
        </mxCell>
        <mxCell id="LH-wosX4n64rVjz8hfUV-51" value="Staff" style="rounded=0;whiteSpace=wrap;html=1;fontFamily=Helvetica;fontSize=11;fontColor=default;" parent="1" vertex="1">
          <mxGeometry x="500" y="550" width="120" height="40" as="geometry" />
        </mxCell>
        <mxCell id="LH-wosX4n64rVjz8hfUV-58" style="edgeStyle=orthogonalEdgeStyle;shape=connector;rounded=0;orthogonalLoop=1;jettySize=auto;html=1;exitX=0.5;exitY=1;exitDx=0;exitDy=0;entryX=0.456;entryY=0.021;entryDx=0;entryDy=0;entryPerimeter=0;labelBackgroundColor=default;strokeColor=default;fontFamily=Helvetica;fontSize=11;fontColor=default;endArrow=none;endFill=0;" parent="1" source="LH-wosX4n64rVjz8hfUV-53" target="LH-wosX4n64rVjz8hfUV-51" edge="1">
          <mxGeometry relative="1" as="geometry">
            <Array as="points">
              <mxPoint x="555" y="530" />
            </Array>
          </mxGeometry>
        </mxCell>
        <mxCell id="LH-wosX4n64rVjz8hfUV-53" value="Name" style="ellipse;whiteSpace=wrap;html=1;fontFamily=Helvetica;fontSize=11;fontColor=default;" parent="1" vertex="1">
          <mxGeometry x="623" y="500" width="90" height="50" as="geometry" />
        </mxCell>
        <mxCell id="LH-wosX4n64rVjz8hfUV-61" style="edgeStyle=orthogonalEdgeStyle;shape=connector;rounded=0;orthogonalLoop=1;jettySize=auto;html=1;exitX=0;exitY=0.5;exitDx=0;exitDy=0;entryX=0.998;entryY=0.894;entryDx=0;entryDy=0;entryPerimeter=0;labelBackgroundColor=default;strokeColor=default;fontFamily=Helvetica;fontSize=11;fontColor=default;endArrow=none;endFill=0;" parent="1" source="LH-wosX4n64rVjz8hfUV-55" target="LH-wosX4n64rVjz8hfUV-51" edge="1">
          <mxGeometry relative="1" as="geometry" />
        </mxCell>
        <mxCell id="LH-wosX4n64rVjz8hfUV-55" value="&lt;u&gt;ID&lt;/u&gt;" style="ellipse;whiteSpace=wrap;html=1;fontFamily=Helvetica;fontSize=11;fontColor=default;" parent="1" vertex="1">
          <mxGeometry x="660" y="560" width="90" height="50" as="geometry" />
        </mxCell>
        <mxCell id="LH-wosX4n64rVjz8hfUV-64" style="edgeStyle=orthogonalEdgeStyle;shape=connector;rounded=0;orthogonalLoop=1;jettySize=auto;html=1;exitX=0.53;exitY=-0.005;exitDx=0;exitDy=0;entryX=0.311;entryY=1.001;entryDx=0;entryDy=0;entryPerimeter=0;labelBackgroundColor=default;strokeColor=default;fontFamily=Helvetica;fontSize=11;fontColor=default;endArrow=none;endFill=0;exitPerimeter=0;" parent="1" source="LH-wosX4n64rVjz8hfUV-56" target="LH-wosX4n64rVjz8hfUV-51" edge="1">
          <mxGeometry relative="1" as="geometry">
            <Array as="points" />
          </mxGeometry>
        </mxCell>
        <mxCell id="LH-wosX4n64rVjz8hfUV-56" value="Birthday" style="ellipse;whiteSpace=wrap;html=1;fontFamily=Helvetica;fontSize=11;fontColor=default;" parent="1" vertex="1">
          <mxGeometry x="490" y="630" width="90" height="50" as="geometry" />
        </mxCell>
        <mxCell id="LH-wosX4n64rVjz8hfUV-63" style="edgeStyle=orthogonalEdgeStyle;shape=connector;rounded=0;orthogonalLoop=1;jettySize=auto;html=1;exitX=0.5;exitY=0;exitDx=0;exitDy=0;entryX=0.842;entryY=1.046;entryDx=0;entryDy=0;entryPerimeter=0;labelBackgroundColor=default;strokeColor=default;fontFamily=Helvetica;fontSize=11;fontColor=default;endArrow=none;endFill=0;" parent="1" source="LH-wosX4n64rVjz8hfUV-57" target="LH-wosX4n64rVjz8hfUV-51" edge="1">
          <mxGeometry relative="1" as="geometry" />
        </mxCell>
        <mxCell id="LH-wosX4n64rVjz8hfUV-57" value="Type" style="ellipse;whiteSpace=wrap;html=1;fontFamily=Helvetica;fontSize=11;fontColor=default;" parent="1" vertex="1">
          <mxGeometry x="590" y="630" width="90" height="50" as="geometry" />
        </mxCell>
        <mxCell id="LH-wosX4n64rVjz8hfUV-62" style="edgeStyle=orthogonalEdgeStyle;shape=connector;rounded=0;orthogonalLoop=1;jettySize=auto;html=1;exitX=0;exitY=0.5;exitDx=0;exitDy=0;entryX=1.001;entryY=0.875;entryDx=0;entryDy=0;entryPerimeter=0;labelBackgroundColor=default;strokeColor=default;fontFamily=Helvetica;fontSize=11;fontColor=default;endArrow=none;endFill=0;" parent="1" source="LH-wosX4n64rVjz8hfUV-55" target="LH-wosX4n64rVjz8hfUV-51" edge="1">
          <mxGeometry relative="1" as="geometry" />
        </mxCell>
        <mxCell id="LH-wosX4n64rVjz8hfUV-65" value="Worked_On" style="rhombus;whiteSpace=wrap;html=1;fontFamily=Helvetica;fontSize=11;fontColor=default;" parent="1" vertex="1">
          <mxGeometry x="280" y="530" width="180" height="80" as="geometry" />
        </mxCell>
        <mxCell id="LH-wosX4n64rVjz8hfUV-67" value="" style="endArrow=none;html=1;rounded=0;labelBackgroundColor=default;strokeColor=default;fontFamily=Helvetica;fontSize=11;fontColor=default;shape=connector;exitX=0.946;exitY=0.447;exitDx=0;exitDy=0;exitPerimeter=0;entryX=-0.002;entryY=0.406;entryDx=0;entryDy=0;entryPerimeter=0;" parent="1" source="LH-wosX4n64rVjz8hfUV-65" target="LH-wosX4n64rVjz8hfUV-51" edge="1">
          <mxGeometry width="50" height="50" relative="1" as="geometry">
            <mxPoint x="450" y="570" as="sourcePoint" />
            <mxPoint x="500" y="520" as="targetPoint" />
          </mxGeometry>
        </mxCell>
        <mxCell id="LH-wosX4n64rVjz8hfUV-75" value="M" style="edgeLabel;html=1;align=center;verticalAlign=middle;resizable=0;points=[];fontSize=11;fontFamily=Helvetica;fontColor=default;" parent="LH-wosX4n64rVjz8hfUV-67" vertex="1" connectable="0">
          <mxGeometry x="-0.496" y="1" relative="1" as="geometry">
            <mxPoint x="-3" y="15" as="offset" />
          </mxGeometry>
        </mxCell>
        <mxCell id="LH-wosX4n64rVjz8hfUV-68" value="" style="endArrow=none;html=1;rounded=0;labelBackgroundColor=default;strokeColor=default;fontFamily=Helvetica;fontSize=11;fontColor=default;shape=connector;exitX=0.946;exitY=0.447;exitDx=0;exitDy=0;exitPerimeter=0;entryX=-0.002;entryY=0.406;entryDx=0;entryDy=0;entryPerimeter=0;" parent="1" edge="1">
          <mxGeometry width="50" height="50" relative="1" as="geometry">
            <mxPoint x="450" y="574.89" as="sourcePoint" />
            <mxPoint x="500" y="574.89" as="targetPoint" />
          </mxGeometry>
        </mxCell>
        <mxCell id="LH-wosX4n64rVjz8hfUV-69" value="" style="endArrow=none;html=1;rounded=0;labelBackgroundColor=default;strokeColor=default;fontFamily=Helvetica;fontSize=11;fontColor=default;shape=connector;exitX=1;exitY=0.25;exitDx=0;exitDy=0;entryX=0.049;entryY=0.448;entryDx=0;entryDy=0;entryPerimeter=0;" parent="1" source="LH-wosX4n64rVjz8hfUV-2" target="LH-wosX4n64rVjz8hfUV-65" edge="1">
          <mxGeometry width="50" height="50" relative="1" as="geometry">
            <mxPoint x="60" y="510" as="sourcePoint" />
            <mxPoint x="110" y="460" as="targetPoint" />
            <Array as="points">
              <mxPoint x="249" y="439" />
              <mxPoint x="250" y="550" />
              <mxPoint x="250" y="566" />
            </Array>
          </mxGeometry>
        </mxCell>
        <mxCell id="LH-wosX4n64rVjz8hfUV-72" value="N" style="edgeLabel;html=1;align=center;verticalAlign=middle;resizable=0;points=[];fontSize=11;fontFamily=Helvetica;fontColor=default;" parent="LH-wosX4n64rVjz8hfUV-69" vertex="1" connectable="0">
          <mxGeometry x="0.942" relative="1" as="geometry">
            <mxPoint x="1" y="14" as="offset" />
          </mxGeometry>
        </mxCell>
        <mxCell id="LH-wosX4n64rVjz8hfUV-70" value="" style="endArrow=none;html=1;rounded=0;labelBackgroundColor=default;strokeColor=default;fontFamily=Helvetica;fontSize=11;fontColor=default;shape=connector;entryX=0.038;entryY=0.539;entryDx=0;entryDy=0;entryPerimeter=0;exitX=0.999;exitY=0.353;exitDx=0;exitDy=0;exitPerimeter=0;" parent="1" source="LH-wosX4n64rVjz8hfUV-2" target="LH-wosX4n64rVjz8hfUV-65" edge="1">
          <mxGeometry width="50" height="50" relative="1" as="geometry">
            <mxPoint x="50" y="466" as="sourcePoint" />
            <mxPoint x="290" y="570" as="targetPoint" />
            <Array as="points">
              <mxPoint x="244" y="443" />
              <mxPoint x="246" y="572" />
            </Array>
          </mxGeometry>
        </mxCell>
        <mxCell id="LH-wosX4n64rVjz8hfUV-98" value="&lt;div&gt;Character&lt;/div&gt;" style="rounded=0;whiteSpace=wrap;html=1;fontFamily=Helvetica;fontSize=11;fontColor=default;" parent="1" vertex="1">
          <mxGeometry x="81.30000000000001" y="730" width="120" height="40" as="geometry" />
        </mxCell>
        <mxCell id="WyOjGXqvEOlPAhc7vTdw-3" style="edgeStyle=orthogonalEdgeStyle;shape=connector;rounded=0;orthogonalLoop=1;jettySize=auto;html=1;exitX=0.68;exitY=0.038;exitDx=0;exitDy=0;entryX=0.081;entryY=1.008;entryDx=0;entryDy=0;entryPerimeter=0;labelBackgroundColor=default;strokeColor=default;fontFamily=Helvetica;fontSize=11;fontColor=default;endArrow=none;endFill=0;exitPerimeter=0;" parent="1" source="LH-wosX4n64rVjz8hfUV-99" target="LH-wosX4n64rVjz8hfUV-98" edge="1">
          <mxGeometry relative="1" as="geometry">
            <mxPoint x="50.999999999999815" y="816.6499999999999" as="sourcePoint" />
            <Array as="points">
              <mxPoint x="52" y="817" />
              <mxPoint x="91" y="817" />
            </Array>
          </mxGeometry>
        </mxCell>
        <mxCell id="LH-wosX4n64rVjz8hfUV-99" value="&lt;div align=&quot;center&quot;&gt;&lt;u&gt;ID&lt;/u&gt;&lt;/div&gt;" style="ellipse;whiteSpace=wrap;html=1;fontFamily=Helvetica;fontSize=11;fontColor=default;align=center;" parent="1" vertex="1">
          <mxGeometry x="-9" y="814" width="90" height="50" as="geometry" />
        </mxCell>
        <mxCell id="WyOjGXqvEOlPAhc7vTdw-4" style="edgeStyle=orthogonalEdgeStyle;shape=connector;rounded=0;orthogonalLoop=1;jettySize=auto;html=1;entryX=0.25;entryY=1;entryDx=0;entryDy=0;labelBackgroundColor=default;strokeColor=default;fontFamily=Helvetica;fontSize=11;fontColor=default;endArrow=none;endFill=0;" parent="1" source="LH-wosX4n64rVjz8hfUV-100" target="LH-wosX4n64rVjz8hfUV-98" edge="1">
          <mxGeometry relative="1" as="geometry" />
        </mxCell>
        <mxCell id="LH-wosX4n64rVjz8hfUV-100" value="Name" style="ellipse;whiteSpace=wrap;html=1;fontFamily=Helvetica;fontSize=11;fontColor=default;" parent="1" vertex="1">
          <mxGeometry x="52.3" y="863" width="90" height="50" as="geometry" />
        </mxCell>
        <mxCell id="LH-wosX4n64rVjz8hfUV-101" value="" style="endArrow=none;html=1;rounded=0;labelBackgroundColor=default;strokeColor=default;fontFamily=Helvetica;fontSize=11;fontColor=default;shape=connector;entryX=0.909;entryY=0.985;entryDx=0;entryDy=0;entryPerimeter=0;exitX=0.955;exitY=0.455;exitDx=0;exitDy=0;exitPerimeter=0;" parent="1" source="LH-wosX4n64rVjz8hfUV-85" target="LH-wosX4n64rVjz8hfUV-2" edge="1">
          <mxGeometry width="50" height="50" relative="1" as="geometry">
            <mxPoint x="2" y="787" as="sourcePoint" />
            <mxPoint x="35" y="470" as="targetPoint" />
            <Array as="points">
              <mxPoint x="39" y="726" />
            </Array>
          </mxGeometry>
        </mxCell>
        <mxCell id="LH-wosX4n64rVjz8hfUV-102" value="" style="endArrow=none;html=1;rounded=0;labelBackgroundColor=default;strokeColor=default;fontFamily=Helvetica;fontSize=11;fontColor=default;shape=connector;entryX=0.951;entryY=1.003;entryDx=0;entryDy=0;entryPerimeter=0;exitX=0.955;exitY=0.563;exitDx=0;exitDy=0;exitPerimeter=0;" parent="1" source="LH-wosX4n64rVjz8hfUV-85" target="LH-wosX4n64rVjz8hfUV-2" edge="1">
          <mxGeometry width="50" height="50" relative="1" as="geometry">
            <mxPoint x="1" y="764" as="sourcePoint" />
            <mxPoint x="49" y="479" as="targetPoint" />
            <Array as="points">
              <mxPoint x="44" y="732" />
            </Array>
          </mxGeometry>
        </mxCell>
        <mxCell id="WyOjGXqvEOlPAhc7vTdw-62" value="N" style="edgeLabel;html=1;align=center;verticalAlign=middle;resizable=0;points=[];fontSize=11;fontFamily=Helvetica;fontColor=default;" parent="LH-wosX4n64rVjz8hfUV-102" connectable="0" vertex="1">
          <mxGeometry x="-0.9398" y="2" relative="1" as="geometry">
            <mxPoint x="-4" y="-14" as="offset" />
          </mxGeometry>
        </mxCell>
        <mxCell id="WyOjGXqvEOlPAhc7vTdw-6" style="edgeStyle=orthogonalEdgeStyle;shape=connector;rounded=0;orthogonalLoop=1;jettySize=auto;html=1;exitX=0.478;exitY=0.02;exitDx=0;exitDy=0;entryX=0.864;entryY=0.983;entryDx=0;entryDy=0;labelBackgroundColor=default;strokeColor=default;fontFamily=Helvetica;fontSize=11;fontColor=default;endArrow=none;endFill=0;entryPerimeter=0;exitPerimeter=0;" parent="1" source="WyOjGXqvEOlPAhc7vTdw-2" target="LH-wosX4n64rVjz8hfUV-98" edge="1">
          <mxGeometry relative="1" as="geometry" />
        </mxCell>
        <mxCell id="WyOjGXqvEOlPAhc7vTdw-2" value="Description" style="ellipse;whiteSpace=wrap;html=1;fontFamily=Helvetica;fontSize=11;fontColor=default;" parent="1" vertex="1">
          <mxGeometry x="132" y="818" width="90" height="50" as="geometry" />
        </mxCell>
        <mxCell id="LH-wosX4n64rVjz8hfUV-76" value="&lt;div&gt;Studio&lt;/div&gt;" style="rounded=0;whiteSpace=wrap;html=1;fontFamily=Helvetica;fontSize=11;fontColor=default;" parent="1" vertex="1">
          <mxGeometry x="-336" y="710" width="120" height="40" as="geometry" />
        </mxCell>
        <mxCell id="LH-wosX4n64rVjz8hfUV-97" style="edgeStyle=orthogonalEdgeStyle;shape=connector;rounded=0;orthogonalLoop=1;jettySize=auto;html=1;exitX=0.5;exitY=0;exitDx=0;exitDy=0;entryX=0.655;entryY=1;entryDx=0;entryDy=0;entryPerimeter=0;labelBackgroundColor=default;strokeColor=default;fontFamily=Helvetica;fontSize=11;fontColor=default;endArrow=none;endFill=0;" parent="1" source="LH-wosX4n64rVjz8hfUV-77" target="LH-wosX4n64rVjz8hfUV-76" edge="1">
          <mxGeometry relative="1" as="geometry" />
        </mxCell>
        <mxCell id="LH-wosX4n64rVjz8hfUV-77" value="&lt;u&gt;ID&lt;/u&gt;" style="ellipse;whiteSpace=wrap;html=1;fontFamily=Helvetica;fontSize=11;fontColor=default;" parent="1" vertex="1">
          <mxGeometry x="-276" y="790" width="90" height="50" as="geometry" />
        </mxCell>
        <mxCell id="LH-wosX4n64rVjz8hfUV-96" style="edgeStyle=orthogonalEdgeStyle;shape=connector;rounded=0;orthogonalLoop=1;jettySize=auto;html=1;entryX=0.164;entryY=0.992;entryDx=0;entryDy=0;entryPerimeter=0;labelBackgroundColor=default;strokeColor=default;fontFamily=Helvetica;fontSize=11;fontColor=default;endArrow=none;endFill=0;" parent="1" target="LH-wosX4n64rVjz8hfUV-76" edge="1">
          <mxGeometry relative="1" as="geometry">
            <Array as="points">
              <mxPoint x="-316" y="810" />
            </Array>
            <mxPoint x="-316" y="808" as="sourcePoint" />
          </mxGeometry>
        </mxCell>
        <mxCell id="LH-wosX4n64rVjz8hfUV-78" value="Name" style="ellipse;whiteSpace=wrap;html=1;fontFamily=Helvetica;fontSize=11;fontColor=default;" parent="1" vertex="1">
          <mxGeometry x="-366" y="810" width="90" height="50" as="geometry" />
        </mxCell>
        <mxCell id="LH-wosX4n64rVjz8hfUV-92" style="edgeStyle=orthogonalEdgeStyle;shape=connector;rounded=0;orthogonalLoop=1;jettySize=auto;html=1;exitX=1;exitY=0.5;exitDx=0;exitDy=0;entryX=0.5;entryY=0;entryDx=0;entryDy=0;labelBackgroundColor=default;strokeColor=default;fontFamily=Helvetica;fontSize=11;fontColor=default;endArrow=none;endFill=0;" parent="1" source="LH-wosX4n64rVjz8hfUV-80" target="LH-wosX4n64rVjz8hfUV-76" edge="1">
          <mxGeometry relative="1" as="geometry" />
        </mxCell>
        <mxCell id="LH-wosX4n64rVjz8hfUV-80" value="Established_at" style="ellipse;whiteSpace=wrap;html=1;fontFamily=Helvetica;fontSize=11;fontColor=default;" parent="1" vertex="1">
          <mxGeometry x="-456" y="660" width="90" height="50" as="geometry" />
        </mxCell>
        <mxCell id="LH-wosX4n64rVjz8hfUV-94" style="edgeStyle=orthogonalEdgeStyle;shape=connector;rounded=0;orthogonalLoop=1;jettySize=auto;html=1;exitX=1;exitY=0.5;exitDx=0;exitDy=0;entryX=-0.008;entryY=0.133;entryDx=0;entryDy=0;entryPerimeter=0;labelBackgroundColor=default;strokeColor=default;fontFamily=Helvetica;fontSize=11;fontColor=default;endArrow=none;endFill=0;" parent="1" source="LH-wosX4n64rVjz8hfUV-82" target="LH-wosX4n64rVjz8hfUV-76" edge="1">
          <mxGeometry relative="1" as="geometry" />
        </mxCell>
        <mxCell id="LH-wosX4n64rVjz8hfUV-82" value="Alternative_Name" style="ellipse;whiteSpace=wrap;html=1;fontFamily=Helvetica;fontSize=11;fontColor=default;" parent="1" vertex="1">
          <mxGeometry x="-520" y="707" width="90" height="50" as="geometry" />
        </mxCell>
        <mxCell id="LH-wosX4n64rVjz8hfUV-95" style="edgeStyle=orthogonalEdgeStyle;shape=connector;rounded=0;orthogonalLoop=1;jettySize=auto;html=1;exitX=0;exitY=0;exitDx=0;exitDy=0;entryX=0.044;entryY=1;entryDx=0;entryDy=0;entryPerimeter=0;labelBackgroundColor=default;strokeColor=default;fontFamily=Helvetica;fontSize=11;fontColor=default;endArrow=none;endFill=0;" parent="1" source="LH-wosX4n64rVjz8hfUV-84" target="LH-wosX4n64rVjz8hfUV-76" edge="1">
          <mxGeometry relative="1" as="geometry">
            <Array as="points">
              <mxPoint x="-454" y="782" />
              <mxPoint x="-331" y="782" />
            </Array>
          </mxGeometry>
        </mxCell>
        <mxCell id="LH-wosX4n64rVjz8hfUV-84" value="Description" style="ellipse;whiteSpace=wrap;html=1;fontFamily=Helvetica;fontSize=11;fontColor=default;" parent="1" vertex="1">
          <mxGeometry x="-471" y="764" width="90" height="50" as="geometry" />
        </mxCell>
        <mxCell id="LH-wosX4n64rVjz8hfUV-85" value="&lt;div&gt;Produced&lt;/div&gt;" style="rhombus;whiteSpace=wrap;html=1;fontFamily=Helvetica;fontSize=11;fontColor=default;" parent="1" vertex="1">
          <mxGeometry x="-165.88" y="690" width="180" height="80" as="geometry" />
        </mxCell>
        <mxCell id="LH-wosX4n64rVjz8hfUV-86" value="" style="endArrow=none;html=1;rounded=0;labelBackgroundColor=default;strokeColor=default;fontFamily=Helvetica;fontSize=11;fontColor=default;shape=connector;exitX=0.099;exitY=0.395;exitDx=0;exitDy=0;exitPerimeter=0;" parent="1" source="LH-wosX4n64rVjz8hfUV-85" edge="1">
          <mxGeometry width="50" height="50" relative="1" as="geometry">
            <mxPoint x="-156" y="720" as="sourcePoint" />
            <mxPoint x="-216" y="723" as="targetPoint" />
          </mxGeometry>
        </mxCell>
        <mxCell id="LH-wosX4n64rVjz8hfUV-87" value="" style="endArrow=none;html=1;rounded=0;labelBackgroundColor=default;strokeColor=default;fontFamily=Helvetica;fontSize=11;fontColor=default;shape=connector;exitX=0.108;exitY=0.595;exitDx=0;exitDy=0;exitPerimeter=0;" parent="1" source="LH-wosX4n64rVjz8hfUV-85" edge="1">
          <mxGeometry width="50" height="50" relative="1" as="geometry">
            <mxPoint x="-151" y="740" as="sourcePoint" />
            <mxPoint x="-216" y="738" as="targetPoint" />
          </mxGeometry>
        </mxCell>
        <mxCell id="LH-wosX4n64rVjz8hfUV-91" value="1" style="text;html=1;align=center;verticalAlign=middle;resizable=0;points=[];autosize=1;strokeColor=none;fillColor=none;fontSize=11;fontFamily=Helvetica;fontColor=default;" parent="1" vertex="1">
          <mxGeometry x="-180.88" y="700" width="30" height="30" as="geometry" />
        </mxCell>
        <mxCell id="WyOjGXqvEOlPAhc7vTdw-12" value="Voice_acted_by" style="rhombus;whiteSpace=wrap;html=1;fontFamily=Helvetica;fontSize=11;fontColor=default;" parent="1" vertex="1">
          <mxGeometry x="264" y="638" width="180" height="80" as="geometry" />
        </mxCell>
        <mxCell id="WyOjGXqvEOlPAhc7vTdw-13" value="Appears_in" style="rhombus;whiteSpace=wrap;html=1;fontFamily=Helvetica;fontSize=11;fontColor=default;" parent="1" vertex="1">
          <mxGeometry x="57.30000000000001" y="580" width="180" height="80" as="geometry" />
        </mxCell>
        <mxCell id="WyOjGXqvEOlPAhc7vTdw-14" value="" style="endArrow=none;html=1;rounded=0;labelBackgroundColor=default;strokeColor=default;fontFamily=Helvetica;fontSize=11;fontColor=default;shape=connector;entryX=0.464;entryY=0.965;entryDx=0;entryDy=0;entryPerimeter=0;" parent="1" target="WyOjGXqvEOlPAhc7vTdw-13" edge="1">
          <mxGeometry width="50" height="50" relative="1" as="geometry">
            <mxPoint x="142" y="729" as="sourcePoint" />
            <mxPoint x="193" y="681" as="targetPoint" />
            <Array as="points" />
          </mxGeometry>
        </mxCell>
        <mxCell id="WyOjGXqvEOlPAhc7vTdw-15" value="" style="endArrow=none;html=1;rounded=0;labelBackgroundColor=default;strokeColor=default;fontFamily=Helvetica;fontSize=11;fontColor=default;shape=connector;entryX=1;entryY=0.75;entryDx=0;entryDy=0;exitX=0.474;exitY=0.009;exitDx=0;exitDy=0;exitPerimeter=0;" parent="1" source="WyOjGXqvEOlPAhc7vTdw-13" target="LH-wosX4n64rVjz8hfUV-2" edge="1">
          <mxGeometry width="50" height="50" relative="1" as="geometry">
            <mxPoint x="139" y="584" as="sourcePoint" />
            <mxPoint x="189" y="534" as="targetPoint" />
            <Array as="points">
              <mxPoint x="138" y="461" />
            </Array>
          </mxGeometry>
        </mxCell>
        <mxCell id="WyOjGXqvEOlPAhc7vTdw-16" value="" style="endArrow=none;html=1;rounded=0;labelBackgroundColor=default;strokeColor=default;fontFamily=Helvetica;fontSize=11;fontColor=default;shape=connector;entryX=0.524;entryY=0.019;entryDx=0;entryDy=0;entryPerimeter=0;exitX=1.001;exitY=0.566;exitDx=0;exitDy=0;exitPerimeter=0;" parent="1" source="LH-wosX4n64rVjz8hfUV-2" target="WyOjGXqvEOlPAhc7vTdw-13" edge="1">
          <mxGeometry width="50" height="50" relative="1" as="geometry">
            <mxPoint x="73" y="533" as="sourcePoint" />
            <mxPoint x="123" y="483" as="targetPoint" />
            <Array as="points">
              <mxPoint x="147" y="454" />
            </Array>
          </mxGeometry>
        </mxCell>
        <mxCell id="WyOjGXqvEOlPAhc7vTdw-18" value="N" style="edgeLabel;html=1;align=center;verticalAlign=middle;resizable=0;points=[];fontSize=11;fontFamily=Helvetica;fontColor=default;" parent="WyOjGXqvEOlPAhc7vTdw-16" connectable="0" vertex="1">
          <mxGeometry x="0.8835" y="1" relative="1" as="geometry">
            <mxPoint x="6" y="2" as="offset" />
          </mxGeometry>
        </mxCell>
        <mxCell id="WyOjGXqvEOlPAhc7vTdw-17" value="" style="endArrow=none;html=1;rounded=0;labelBackgroundColor=default;strokeColor=default;fontFamily=Helvetica;fontSize=11;fontColor=default;shape=connector;entryX=0.521;entryY=0.986;entryDx=0;entryDy=0;entryPerimeter=0;" parent="1" target="WyOjGXqvEOlPAhc7vTdw-13" edge="1">
          <mxGeometry width="50" height="50" relative="1" as="geometry">
            <mxPoint x="152" y="729" as="sourcePoint" />
            <mxPoint x="201" y="680" as="targetPoint" />
          </mxGeometry>
        </mxCell>
        <mxCell id="WyOjGXqvEOlPAhc7vTdw-19" value="M" style="edgeLabel;html=1;align=center;verticalAlign=middle;resizable=0;points=[];fontSize=11;fontFamily=Helvetica;fontColor=default;" parent="WyOjGXqvEOlPAhc7vTdw-17" connectable="0" vertex="1">
          <mxGeometry x="0.7604" relative="1" as="geometry">
            <mxPoint x="8" y="-4" as="offset" />
          </mxGeometry>
        </mxCell>
        <mxCell id="WyOjGXqvEOlPAhc7vTdw-20" value="" style="endArrow=none;html=1;rounded=0;labelBackgroundColor=default;strokeColor=default;fontFamily=Helvetica;fontSize=11;fontColor=default;shape=connector;entryX=0.048;entryY=0.446;entryDx=0;entryDy=0;entryPerimeter=0;exitX=0.802;exitY=0.018;exitDx=0;exitDy=0;exitPerimeter=0;" parent="1" source="LH-wosX4n64rVjz8hfUV-98" target="WyOjGXqvEOlPAhc7vTdw-12" edge="1">
          <mxGeometry width="50" height="50" relative="1" as="geometry">
            <mxPoint x="202" y="740" as="sourcePoint" />
            <mxPoint x="252" y="690" as="targetPoint" />
            <Array as="points">
              <mxPoint x="177" y="674" />
            </Array>
          </mxGeometry>
        </mxCell>
        <mxCell id="WyOjGXqvEOlPAhc7vTdw-21" value="" style="endArrow=none;html=1;rounded=0;labelBackgroundColor=default;strokeColor=default;fontFamily=Helvetica;fontSize=11;fontColor=default;shape=connector;entryX=0.037;entryY=0.55;entryDx=0;entryDy=0;entryPerimeter=0;" parent="1" target="WyOjGXqvEOlPAhc7vTdw-12" edge="1">
          <mxGeometry width="50" height="50" relative="1" as="geometry">
            <mxPoint x="185" y="730" as="sourcePoint" />
            <mxPoint x="235" y="680" as="targetPoint" />
            <Array as="points">
              <mxPoint x="185" y="682" />
            </Array>
          </mxGeometry>
        </mxCell>
        <mxCell id="WyOjGXqvEOlPAhc7vTdw-27" value="1" style="edgeLabel;html=1;align=center;verticalAlign=middle;resizable=0;points=[];fontSize=11;fontFamily=Helvetica;fontColor=default;" parent="WyOjGXqvEOlPAhc7vTdw-21" connectable="0" vertex="1">
          <mxGeometry x="0.8255" y="1" relative="1" as="geometry">
            <mxPoint y="9" as="offset" />
          </mxGeometry>
        </mxCell>
        <mxCell id="WyOjGXqvEOlPAhc7vTdw-22" value="" style="endArrow=none;html=1;rounded=0;labelBackgroundColor=default;strokeColor=default;fontFamily=Helvetica;fontSize=11;fontColor=default;shape=connector;exitX=0.953;exitY=0.452;exitDx=0;exitDy=0;exitPerimeter=0;entryX=0.113;entryY=0.986;entryDx=0;entryDy=0;entryPerimeter=0;" parent="1" source="WyOjGXqvEOlPAhc7vTdw-12" target="LH-wosX4n64rVjz8hfUV-51" edge="1">
          <mxGeometry width="50" height="50" relative="1" as="geometry">
            <mxPoint x="464" y="641" as="sourcePoint" />
            <mxPoint x="514" y="591" as="targetPoint" />
            <Array as="points">
              <mxPoint x="454" y="674" />
              <mxPoint x="455" y="599" />
              <mxPoint x="513" y="599" />
            </Array>
          </mxGeometry>
        </mxCell>
        <mxCell id="WyOjGXqvEOlPAhc7vTdw-23" value="" style="endArrow=none;html=1;rounded=0;labelBackgroundColor=default;strokeColor=default;fontFamily=Helvetica;fontSize=11;fontColor=default;shape=connector;entryX=0.153;entryY=1.018;entryDx=0;entryDy=0;entryPerimeter=0;" parent="1" target="LH-wosX4n64rVjz8hfUV-51" edge="1">
          <mxGeometry width="50" height="50" relative="1" as="geometry">
            <mxPoint x="435" y="682" as="sourcePoint" />
            <mxPoint x="485" y="632" as="targetPoint" />
            <Array as="points">
              <mxPoint x="461" y="682" />
              <mxPoint x="462" y="604" />
              <mxPoint x="518" y="603" />
            </Array>
          </mxGeometry>
        </mxCell>
        <mxCell id="WyOjGXqvEOlPAhc7vTdw-24" value="1" style="edgeLabel;html=1;align=center;verticalAlign=middle;resizable=0;points=[];fontSize=11;fontFamily=Helvetica;fontColor=default;" parent="WyOjGXqvEOlPAhc7vTdw-23" connectable="0" vertex="1">
          <mxGeometry x="-0.7915" y="-1" relative="1" as="geometry">
            <mxPoint x="-9" y="7" as="offset" />
          </mxGeometry>
        </mxCell>
        <mxCell id="WyOjGXqvEOlPAhc7vTdw-63" style="edgeStyle=orthogonalEdgeStyle;shape=connector;rounded=0;orthogonalLoop=1;jettySize=auto;html=1;exitX=1;exitY=0.5;exitDx=0;exitDy=0;entryX=0.025;entryY=0.478;entryDx=0;entryDy=0;labelBackgroundColor=default;strokeColor=default;fontFamily=Helvetica;fontSize=11;fontColor=default;endArrow=none;endFill=0;entryPerimeter=0;" parent="1" source="WyOjGXqvEOlPAhc7vTdw-28" target="WyOjGXqvEOlPAhc7vTdw-61" edge="1">
          <mxGeometry relative="1" as="geometry">
            <Array as="points">
              <mxPoint x="-255.94" y="126" />
              <mxPoint x="-255.94" y="258" />
              <mxPoint x="-220.94" y="258" />
            </Array>
          </mxGeometry>
        </mxCell>
        <mxCell id="WyOjGXqvEOlPAhc7vTdw-68" value="N" style="edgeLabel;html=1;align=center;verticalAlign=middle;resizable=0;points=[];fontSize=11;fontFamily=Helvetica;fontColor=default;" parent="WyOjGXqvEOlPAhc7vTdw-63" connectable="0" vertex="1">
          <mxGeometry x="0.9141" relative="1" as="geometry">
            <mxPoint y="-10" as="offset" />
          </mxGeometry>
        </mxCell>
        <mxCell id="WyOjGXqvEOlPAhc7vTdw-28" value="&lt;div&gt;User&lt;/div&gt;" style="rounded=0;whiteSpace=wrap;html=1;fontFamily=Helvetica;fontSize=11;fontColor=default;" parent="1" vertex="1">
          <mxGeometry x="-406.94" y="106" width="120" height="40" as="geometry" />
        </mxCell>
        <mxCell id="WyOjGXqvEOlPAhc7vTdw-48" style="edgeStyle=orthogonalEdgeStyle;shape=connector;rounded=0;orthogonalLoop=1;jettySize=auto;html=1;exitX=1;exitY=1;exitDx=0;exitDy=0;entryX=0.044;entryY=-0.008;entryDx=0;entryDy=0;entryPerimeter=0;labelBackgroundColor=default;strokeColor=default;fontFamily=Helvetica;fontSize=11;fontColor=default;endArrow=none;endFill=0;" parent="1" source="WyOjGXqvEOlPAhc7vTdw-33" target="WyOjGXqvEOlPAhc7vTdw-28" edge="1">
          <mxGeometry relative="1" as="geometry" />
        </mxCell>
        <mxCell id="WyOjGXqvEOlPAhc7vTdw-33" value="&lt;u&gt;ID&lt;/u&gt;" style="ellipse;whiteSpace=wrap;html=1;fontFamily=Helvetica;fontSize=11;fontColor=default;" parent="1" vertex="1">
          <mxGeometry x="-550.94" y="7.999999999999943" width="90" height="50" as="geometry" />
        </mxCell>
        <mxCell id="WyOjGXqvEOlPAhc7vTdw-47" style="edgeStyle=orthogonalEdgeStyle;shape=connector;rounded=0;orthogonalLoop=1;jettySize=auto;html=1;exitX=1;exitY=0.5;exitDx=0;exitDy=0;entryX=0;entryY=0.25;entryDx=0;entryDy=0;labelBackgroundColor=default;strokeColor=default;fontFamily=Helvetica;fontSize=11;fontColor=default;endArrow=none;endFill=0;" parent="1" source="WyOjGXqvEOlPAhc7vTdw-34" target="WyOjGXqvEOlPAhc7vTdw-28" edge="1">
          <mxGeometry relative="1" as="geometry" />
        </mxCell>
        <mxCell id="WyOjGXqvEOlPAhc7vTdw-34" value="Name" style="ellipse;whiteSpace=wrap;html=1;fontFamily=Helvetica;fontSize=11;fontColor=default;" parent="1" vertex="1">
          <mxGeometry x="-578.94" y="66.99999999999994" width="90" height="50" as="geometry" />
        </mxCell>
        <mxCell id="WyOjGXqvEOlPAhc7vTdw-50" style="edgeStyle=orthogonalEdgeStyle;shape=connector;rounded=0;orthogonalLoop=1;jettySize=auto;html=1;exitX=0.5;exitY=1;exitDx=0;exitDy=0;entryX=0.291;entryY=0;entryDx=0;entryDy=0;entryPerimeter=0;labelBackgroundColor=default;strokeColor=default;fontFamily=Helvetica;fontSize=11;fontColor=default;endArrow=none;endFill=0;" parent="1" source="WyOjGXqvEOlPAhc7vTdw-36" edge="1">
          <mxGeometry relative="1" as="geometry">
            <mxPoint x="-389" y="106" as="targetPoint" />
          </mxGeometry>
        </mxCell>
        <mxCell id="WyOjGXqvEOlPAhc7vTdw-36" value="Sex" style="ellipse;whiteSpace=wrap;html=1;fontFamily=Helvetica;fontSize=11;fontColor=default;" parent="1" vertex="1">
          <mxGeometry x="-383.92" y="-25.000000000000057" width="90" height="50" as="geometry" />
        </mxCell>
        <mxCell id="WyOjGXqvEOlPAhc7vTdw-51" style="edgeStyle=orthogonalEdgeStyle;shape=connector;rounded=0;orthogonalLoop=1;jettySize=auto;html=1;exitX=0.093;exitY=0.76;exitDx=0;exitDy=0;entryX=0.377;entryY=-0.009;entryDx=0;entryDy=0;entryPerimeter=0;labelBackgroundColor=default;strokeColor=default;fontFamily=Helvetica;fontSize=11;fontColor=default;endArrow=none;endFill=0;exitPerimeter=0;" parent="1" source="WyOjGXqvEOlPAhc7vTdw-37" edge="1">
          <mxGeometry relative="1" as="geometry">
            <Array as="points">
              <mxPoint x="-278.92" y="35" />
              <mxPoint x="-326.92" y="35" />
              <mxPoint x="-326.92" y="74" />
              <mxPoint x="-378.92" y="74" />
            </Array>
            <mxPoint x="-378.68000000000006" y="105.6400000000001" as="targetPoint" />
          </mxGeometry>
        </mxCell>
        <mxCell id="WyOjGXqvEOlPAhc7vTdw-37" value="Created_at" style="ellipse;whiteSpace=wrap;html=1;fontFamily=Helvetica;fontSize=11;fontColor=default;" parent="1" vertex="1">
          <mxGeometry x="-286.92" y="-5.000000000000057" width="90" height="50" as="geometry" />
        </mxCell>
        <mxCell id="WyOjGXqvEOlPAhc7vTdw-52" style="edgeStyle=orthogonalEdgeStyle;shape=connector;rounded=0;orthogonalLoop=1;jettySize=auto;html=1;exitX=0.044;exitY=0.7;exitDx=0;exitDy=0;entryX=0.481;entryY=0;entryDx=0;entryDy=0;entryPerimeter=0;labelBackgroundColor=default;strokeColor=default;fontFamily=Helvetica;fontSize=11;fontColor=default;endArrow=none;endFill=0;exitPerimeter=0;" parent="1" source="WyOjGXqvEOlPAhc7vTdw-38" edge="1">
          <mxGeometry relative="1" as="geometry">
            <Array as="points">
              <mxPoint x="-314.92" y="49" />
              <mxPoint x="-314.92" y="81" />
              <mxPoint x="-365.92" y="81" />
            </Array>
            <mxPoint x="-366.20000000000005" y="106" as="targetPoint" />
          </mxGeometry>
        </mxCell>
        <mxCell id="WyOjGXqvEOlPAhc7vTdw-38" value="Birthday" style="ellipse;whiteSpace=wrap;html=1;fontFamily=Helvetica;fontSize=11;fontColor=default;" parent="1" vertex="1">
          <mxGeometry x="-196.92" y="13.999999999999943" width="90" height="50" as="geometry" />
        </mxCell>
        <mxCell id="WyOjGXqvEOlPAhc7vTdw-53" style="edgeStyle=orthogonalEdgeStyle;shape=connector;rounded=0;orthogonalLoop=1;jettySize=auto;html=1;exitX=0.026;exitY=0.653;exitDx=0;exitDy=0;entryX=0.55;entryY=-0.008;entryDx=0;entryDy=0;entryPerimeter=0;labelBackgroundColor=default;strokeColor=default;fontFamily=Helvetica;fontSize=11;fontColor=default;endArrow=none;endFill=0;exitPerimeter=0;" parent="1" source="WyOjGXqvEOlPAhc7vTdw-39" edge="1">
          <mxGeometry relative="1" as="geometry">
            <Array as="points">
              <mxPoint x="-283.92" y="87" />
              <mxPoint x="-357.92" y="86" />
            </Array>
            <mxPoint x="-357.9200000000001" y="105.68000000000006" as="targetPoint" />
          </mxGeometry>
        </mxCell>
        <mxCell id="WyOjGXqvEOlPAhc7vTdw-39" value="Location" style="ellipse;whiteSpace=wrap;html=1;fontFamily=Helvetica;fontSize=11;fontColor=default;" parent="1" vertex="1">
          <mxGeometry x="-283.92" y="53.99999999999994" width="90" height="50" as="geometry" />
        </mxCell>
        <mxCell id="WyOjGXqvEOlPAhc7vTdw-57" value="N" style="edgeStyle=orthogonalEdgeStyle;shape=connector;rounded=0;orthogonalLoop=1;jettySize=auto;html=1;exitX=0;exitY=0.5;exitDx=0;exitDy=0;entryX=0;entryY=0.5;entryDx=0;entryDy=0;labelBackgroundColor=default;strokeColor=default;fontFamily=Helvetica;fontSize=11;fontColor=default;endArrow=none;endFill=0;" parent="1" source="WyOjGXqvEOlPAhc7vTdw-55" target="WyOjGXqvEOlPAhc7vTdw-28" edge="1">
          <mxGeometry x="-0.9675" y="7" relative="1" as="geometry">
            <mxPoint as="offset" />
          </mxGeometry>
        </mxCell>
        <mxCell id="WyOjGXqvEOlPAhc7vTdw-58" style="edgeStyle=orthogonalEdgeStyle;shape=connector;rounded=0;orthogonalLoop=1;jettySize=auto;html=1;exitX=1;exitY=0.5;exitDx=0;exitDy=0;entryX=0.073;entryY=1.007;entryDx=0;entryDy=0;entryPerimeter=0;labelBackgroundColor=default;strokeColor=default;fontFamily=Helvetica;fontSize=11;fontColor=default;endArrow=none;endFill=0;" parent="1" source="WyOjGXqvEOlPAhc7vTdw-55" target="WyOjGXqvEOlPAhc7vTdw-28" edge="1">
          <mxGeometry relative="1" as="geometry" />
        </mxCell>
        <mxCell id="WyOjGXqvEOlPAhc7vTdw-59" value="1" style="edgeLabel;html=1;align=center;verticalAlign=middle;resizable=0;points=[];fontSize=11;fontFamily=Helvetica;fontColor=default;" parent="WyOjGXqvEOlPAhc7vTdw-58" connectable="0" vertex="1">
          <mxGeometry x="-0.8246" y="1" relative="1" as="geometry">
            <mxPoint x="-3" y="9" as="offset" />
          </mxGeometry>
        </mxCell>
        <mxCell id="WyOjGXqvEOlPAhc7vTdw-55" value="Is_Friend" style="rhombus;whiteSpace=wrap;html=1;fontFamily=Helvetica;fontSize=11;fontColor=default;" parent="1" vertex="1">
          <mxGeometry x="-604.94" y="156" width="180" height="80" as="geometry" />
        </mxCell>
        <mxCell id="WyOjGXqvEOlPAhc7vTdw-64" style="edgeStyle=orthogonalEdgeStyle;shape=connector;rounded=0;orthogonalLoop=1;jettySize=auto;html=1;exitX=1;exitY=0.5;exitDx=0;exitDy=0;entryX=0.5;entryY=0;entryDx=0;entryDy=0;labelBackgroundColor=default;strokeColor=default;fontFamily=Helvetica;fontSize=11;fontColor=default;endArrow=none;endFill=0;" parent="1" source="WyOjGXqvEOlPAhc7vTdw-61" target="LH-wosX4n64rVjz8hfUV-2" edge="1">
          <mxGeometry relative="1" as="geometry">
            <Array as="points">
              <mxPoint x="-10" y="260" />
            </Array>
          </mxGeometry>
        </mxCell>
        <mxCell id="WyOjGXqvEOlPAhc7vTdw-71" value="M" style="edgeLabel;html=1;align=center;verticalAlign=middle;resizable=0;points=[];fontSize=11;fontFamily=Helvetica;fontColor=default;" parent="WyOjGXqvEOlPAhc7vTdw-64" connectable="0" vertex="1">
          <mxGeometry x="-0.936" y="-1" relative="1" as="geometry">
            <mxPoint x="5" y="-10" as="offset" />
          </mxGeometry>
        </mxCell>
        <mxCell id="WyOjGXqvEOlPAhc7vTdw-61" value="Has_Watched" style="rhombus;whiteSpace=wrap;html=1;fontFamily=Helvetica;fontSize=11;fontColor=default;" parent="1" vertex="1">
          <mxGeometry x="-224.94" y="220" width="180" height="80" as="geometry" />
        </mxCell>
        <mxCell id="WyOjGXqvEOlPAhc7vTdw-66" value="" style="endArrow=none;html=1;rounded=0;labelBackgroundColor=default;strokeColor=default;fontFamily=Helvetica;fontSize=11;fontColor=default;shape=connector;exitX=0.033;exitY=0.538;exitDx=0;exitDy=0;exitPerimeter=0;entryX=1.001;entryY=0.599;entryDx=0;entryDy=0;entryPerimeter=0;" parent="1" source="WyOjGXqvEOlPAhc7vTdw-61" target="WyOjGXqvEOlPAhc7vTdw-28" edge="1">
          <mxGeometry width="50" height="50" relative="1" as="geometry">
            <mxPoint x="-334.94" y="182" as="sourcePoint" />
            <mxPoint x="-284.94" y="132" as="targetPoint" />
            <Array as="points">
              <mxPoint x="-259.94" y="263" />
              <mxPoint x="-259.94" y="130" />
            </Array>
          </mxGeometry>
        </mxCell>
        <mxCell id="QrQsobWwPES9oVxdhIpv-1" value="" style="rounded=0;whiteSpace=wrap;html=1;" parent="1" vertex="1">
          <mxGeometry x="507" y="129" width="120" height="60" as="geometry" />
        </mxCell>
        <mxCell id="QrQsobWwPES9oVxdhIpv-2" value="Comment" style="rounded=0;whiteSpace=wrap;html=1;fillColor=none;" parent="1" vertex="1">
          <mxGeometry x="494" y="120" width="146" height="79" as="geometry" />
        </mxCell>
        <mxCell id="QrQsobWwPES9oVxdhIpv-3" value="Comment_ID" style="ellipse;whiteSpace=wrap;html=1;fontFamily=Helvetica;fontSize=11;fontColor=default;" parent="1" vertex="1">
          <mxGeometry x="656" y="36.99999999999994" width="90" height="50" as="geometry" />
        </mxCell>
        <mxCell id="QrQsobWwPES9oVxdhIpv-4" value="Comment" style="ellipse;whiteSpace=wrap;html=1;fontFamily=Helvetica;fontSize=11;fontColor=default;" parent="1" vertex="1">
          <mxGeometry x="691" y="164.99999999999994" width="90" height="50" as="geometry" />
        </mxCell>
        <mxCell id="QrQsobWwPES9oVxdhIpv-5" value="" style="endArrow=none;html=1;rounded=0;entryX=0;entryY=0.5;entryDx=0;entryDy=0;exitX=1;exitY=0.75;exitDx=0;exitDy=0;" parent="1" source="QrQsobWwPES9oVxdhIpv-2" target="QrQsobWwPES9oVxdhIpv-4" edge="1">
          <mxGeometry width="50" height="50" relative="1" as="geometry">
            <mxPoint x="514" y="283" as="sourcePoint" />
            <mxPoint x="564" y="233" as="targetPoint" />
          </mxGeometry>
        </mxCell>
        <mxCell id="QrQsobWwPES9oVxdhIpv-6" value="" style="endArrow=none;html=1;rounded=0;entryX=0.5;entryY=1;entryDx=0;entryDy=0;exitX=1;exitY=0.25;exitDx=0;exitDy=0;" parent="1" source="QrQsobWwPES9oVxdhIpv-2" target="QrQsobWwPES9oVxdhIpv-3" edge="1">
          <mxGeometry width="50" height="50" relative="1" as="geometry">
            <mxPoint x="327" y="288" as="sourcePoint" />
            <mxPoint x="377" y="238" as="targetPoint" />
          </mxGeometry>
        </mxCell>
        <mxCell id="QrQsobWwPES9oVxdhIpv-7" value="Has_Comments" style="rhombus;whiteSpace=wrap;html=1;fontFamily=Helvetica;fontSize=11;fontColor=default;" parent="1" vertex="1">
          <mxGeometry x="136.5" y="120.5" width="180" height="80" as="geometry" />
        </mxCell>
        <mxCell id="QrQsobWwPES9oVxdhIpv-8" value="" style="rhombus;whiteSpace=wrap;html=1;fontFamily=Helvetica;fontSize=11;fontColor=default;fillColor=none;" parent="1" vertex="1">
          <mxGeometry x="126" y="117" width="201" height="87" as="geometry" />
        </mxCell>
        <mxCell id="QrQsobWwPES9oVxdhIpv-9" value="Commented" style="rhombus;whiteSpace=wrap;html=1;fontFamily=Helvetica;fontSize=11;fontColor=default;" parent="1" vertex="1">
          <mxGeometry x="138.5" y="-12.5" width="180" height="80" as="geometry" />
        </mxCell>
        <mxCell id="QrQsobWwPES9oVxdhIpv-10" value="" style="rhombus;whiteSpace=wrap;html=1;fontFamily=Helvetica;fontSize=11;fontColor=default;fillColor=none;" parent="1" vertex="1">
          <mxGeometry x="128" y="-16" width="201" height="87" as="geometry" />
        </mxCell>
        <mxCell id="QrQsobWwPES9oVxdhIpv-11" value="" style="endArrow=none;html=1;rounded=0;entryX=0;entryY=0.5;entryDx=0;entryDy=0;exitX=1;exitY=0.5;exitDx=0;exitDy=0;" parent="1" source="QrQsobWwPES9oVxdhIpv-8" target="QrQsobWwPES9oVxdhIpv-2" edge="1">
          <mxGeometry width="50" height="50" relative="1" as="geometry">
            <mxPoint x="404" y="233" as="sourcePoint" />
            <mxPoint x="454" y="183" as="targetPoint" />
          </mxGeometry>
        </mxCell>
        <mxCell id="QrQsobWwPES9oVxdhIpv-17" value="N" style="edgeLabel;html=1;align=center;verticalAlign=middle;resizable=0;points=[];" parent="QrQsobWwPES9oVxdhIpv-11" vertex="1" connectable="0">
          <mxGeometry x="-0.8459" y="1" relative="1" as="geometry">
            <mxPoint x="-7" y="-8" as="offset" />
          </mxGeometry>
        </mxCell>
        <mxCell id="QrQsobWwPES9oVxdhIpv-12" value="" style="endArrow=none;html=1;rounded=0;exitX=1;exitY=0.5;exitDx=0;exitDy=0;entryX=0.25;entryY=0;entryDx=0;entryDy=0;" parent="1" source="QrQsobWwPES9oVxdhIpv-10" target="QrQsobWwPES9oVxdhIpv-2" edge="1">
          <mxGeometry width="50" height="50" relative="1" as="geometry">
            <mxPoint x="421" y="75" as="sourcePoint" />
            <mxPoint x="624" y="28" as="targetPoint" />
            <Array as="points">
              <mxPoint x="531" y="28" />
            </Array>
          </mxGeometry>
        </mxCell>
        <mxCell id="QrQsobWwPES9oVxdhIpv-21" value="N" style="edgeLabel;html=1;align=center;verticalAlign=middle;resizable=0;points=[];" parent="QrQsobWwPES9oVxdhIpv-12" vertex="1" connectable="0">
          <mxGeometry x="-0.8843" y="-1" relative="1" as="geometry">
            <mxPoint x="-9" y="-15" as="offset" />
          </mxGeometry>
        </mxCell>
        <mxCell id="QrQsobWwPES9oVxdhIpv-14" value="" style="endArrow=none;html=1;rounded=0;entryX=0.046;entryY=0.548;entryDx=0;entryDy=0;entryPerimeter=0;exitX=0.668;exitY=0.041;exitDx=0;exitDy=0;exitPerimeter=0;" parent="1" source="LH-wosX4n64rVjz8hfUV-2" target="QrQsobWwPES9oVxdhIpv-8" edge="1">
          <mxGeometry width="50" height="50" relative="1" as="geometry">
            <mxPoint x="12" y="187" as="sourcePoint" />
            <mxPoint x="73" y="153" as="targetPoint" />
            <Array as="points">
              <mxPoint x="12" y="165" />
            </Array>
          </mxGeometry>
        </mxCell>
        <mxCell id="QrQsobWwPES9oVxdhIpv-15" value="" style="endArrow=none;html=1;rounded=0;entryX=0.043;entryY=0.447;entryDx=0;entryDy=0;entryPerimeter=0;exitX=0.599;exitY=0.006;exitDx=0;exitDy=0;exitPerimeter=0;" parent="1" source="LH-wosX4n64rVjz8hfUV-2" target="QrQsobWwPES9oVxdhIpv-8" edge="1">
          <mxGeometry width="50" height="50" relative="1" as="geometry">
            <mxPoint x="4" y="177" as="sourcePoint" />
            <mxPoint x="133" y="156" as="targetPoint" />
            <Array as="points">
              <mxPoint x="4" y="156" />
            </Array>
          </mxGeometry>
        </mxCell>
        <mxCell id="QrQsobWwPES9oVxdhIpv-16" value="1" style="edgeLabel;html=1;align=center;verticalAlign=middle;resizable=0;points=[];" parent="QrQsobWwPES9oVxdhIpv-15" vertex="1" connectable="0">
          <mxGeometry x="0.9488" y="1" relative="1" as="geometry">
            <mxPoint x="1" y="-9" as="offset" />
          </mxGeometry>
        </mxCell>
        <mxCell id="QrQsobWwPES9oVxdhIpv-18" value="" style="endArrow=none;html=1;rounded=0;entryX=0.046;entryY=0.548;entryDx=0;entryDy=0;entryPerimeter=0;exitX=1.002;exitY=0.294;exitDx=0;exitDy=0;exitPerimeter=0;" parent="1" source="WyOjGXqvEOlPAhc7vTdw-28" edge="1">
          <mxGeometry width="50" height="50" relative="1" as="geometry">
            <mxPoint x="11.5" y="298.5" as="sourcePoint" />
            <mxPoint x="136.5" y="31.5" as="targetPoint" />
            <Array as="points">
              <mxPoint x="14" y="115" />
              <mxPoint x="13.5" y="31.5" />
            </Array>
          </mxGeometry>
        </mxCell>
        <mxCell id="QrQsobWwPES9oVxdhIpv-19" value="" style="endArrow=none;html=1;rounded=0;entryX=0.043;entryY=0.447;entryDx=0;entryDy=0;entryPerimeter=0;exitX=1.002;exitY=0.136;exitDx=0;exitDy=0;exitPerimeter=0;" parent="1" source="WyOjGXqvEOlPAhc7vTdw-28" edge="1">
          <mxGeometry width="50" height="50" relative="1" as="geometry">
            <mxPoint x="3.5" y="296.5" as="sourcePoint" />
            <mxPoint x="136.5" y="22.5" as="targetPoint" />
            <Array as="points">
              <mxPoint x="7" y="108" />
              <mxPoint x="5.5" y="22.5" />
            </Array>
          </mxGeometry>
        </mxCell>
        <mxCell id="QrQsobWwPES9oVxdhIpv-20" value="1" style="edgeLabel;html=1;align=center;verticalAlign=middle;resizable=0;points=[];" parent="QrQsobWwPES9oVxdhIpv-19" vertex="1" connectable="0">
          <mxGeometry x="0.9488" y="1" relative="1" as="geometry">
            <mxPoint x="1" y="-9" as="offset" />
          </mxGeometry>
        </mxCell>
        <mxCell id="QrQsobWwPES9oVxdhIpv-23" value="Relation" style="ellipse;whiteSpace=wrap;html=1;fontFamily=Helvetica;fontSize=11;fontColor=default;" parent="1" vertex="1">
          <mxGeometry x="420" y="249.99999999999994" width="90" height="50" as="geometry" />
        </mxCell>
        <mxCell id="QrQsobWwPES9oVxdhIpv-24" value="" style="endArrow=none;html=1;rounded=0;entryX=0.5;entryY=1;entryDx=0;entryDy=0;exitX=1;exitY=0;exitDx=0;exitDy=0;" parent="1" source="LH-wosX4n64rVjz8hfUV-18" target="QrQsobWwPES9oVxdhIpv-23" edge="1">
          <mxGeometry width="50" height="50" relative="1" as="geometry">
            <mxPoint x="454" y="383" as="sourcePoint" />
            <mxPoint x="504" y="333" as="targetPoint" />
          </mxGeometry>
        </mxCell>
      </root>
    </mxGraphModel>
  </diagram>
</mxfile>
